<?xml version="1.0" standalone="no"?>
<!DOCTYPE svg PUBLIC "-//W3C//DTD SVG 20010904//EN"
 "http://www.w3.org/TR/2001/REC-SVG-20010904/DTD/svg10.dtd">
<svg version="1.0" xmlns="http://www.w3.org/2000/svg"
 width="637.000000pt" height="637.000000pt" viewBox="0 0 637.000000 637.000000"
 preserveAspectRatio="xMidYMid meet">
<metadata>
Created by potrace 1.11, written by Peter Selinger 2001-2013
</metadata>
<g transform="translate(0.000000,637.000000) scale(0.100000,-0.100000)"
fill="#000000" stroke="none">
<path d="M80 2595 l0 -2425 410 0 410 0 0 155 0 155 -215 0 -215 0 0 2115 0
2115 215 0 215 0 0 155 0 155 -410 0 -410 0 0 -2425z"/>
<path d="M4110 4865 l0 -155 215 0 215 0 0 -2115 0 -2115 -215 0 -215 0 0
-155 0 -155 410 0 410 0 0 2425 0 2425 -410 0 -410 0 0 -155z"/>
<path d="M5152 4420 l3 -71 65 -23 c92 -32 164 -81 241 -164 139 -150 218
-369 271 -752 18 -129 18 -805 0 -950 -65 -530 -227 -821 -515 -925 l-62 -23
-3 -70 -3 -70 83 18 c255 56 449 160 624 335 239 240 378 543 426 931 18 150
15 466 -6 604 -76 501 -305 865 -675 1075 -103 58 -245 112 -356 135 -27 5
-60 13 -73 15 -22 5 -23 4 -20 -65z"/>
<path d="M3571 2848 c-10 -27 -194 -841 -351 -1553 -60 -275 -112 -511 -115
-524 -6 -24 -6 -24 60 -19 36 3 69 8 72 12 9 9 471 2090 466 2099 -2 4 -31 7
-64 7 -53 0 -60 -3 -68 -22z"/>
<path d="M1115 2838 c-12 -51 -465 -2081 -465 -2084 0 -2 29 -4 65 -4 74 0 75
1 94 95 16 72 438 1954 447 1990 6 25 6 25 -65 25 -65 0 -71 -2 -76 -22z"/>
<path d="M1726 2843 c-3 -10 -64 -281 -135 -603 -72 -322 -175 -785 -231
-1029 -55 -244 -100 -448 -100 -453 0 -5 30 -8 67 -6 l67 3 13 45 c7 25 47
198 88 385 42 187 93 417 115 510 22 94 53 233 69 310 17 77 51 230 76 340 26
110 61 271 80 358 l33 157 -68 0 c-57 0 -70 -3 -74 -17z"/>
<path d="M2201 2223 c-78 -351 -184 -822 -235 -1048 l-93 -410 29 -8 c17 -4
48 -7 71 -5 l41 3 37 165 c176 790 429 1928 429 1933 0 4 -31 7 -68 7 l-69 0
-142 -637z"/>
<path d="M2956 2848 c-12 -39 -210 -917 -301 -1333 -24 -110 -63 -279 -85
-375 -46 -196 -80 -355 -80 -376 0 -11 16 -14 64 -14 36 0 67 4 70 9 3 4 17
64 31 132 15 68 57 261 95 429 93 410 149 658 226 1010 57 257 103 454 120
513 5 15 -3 17 -66 17 -48 0 -72 -4 -74 -12z"/>
<path d="M4176 2843 c-3 -10 -63 -281 -135 -603 -72 -322 -175 -785 -231
-1029 -55 -244 -100 -448 -100 -453 0 -4 31 -8 69 -8 63 0 69 2 74 23 3 12
108 479 232 1037 124 558 228 1023 231 1033 5 15 -3 17 -65 17 -58 0 -71 -3
-75 -17z"/>
<path d="M1180 315 l0 -145 1330 0 1330 0 0 145 0 145 -1330 0 -1330 0 0 -145z"/>
</g>
</svg>
