<?xml version="1.0" standalone="no"?>
<!DOCTYPE svg PUBLIC "-//W3C//DTD SVG 20010904//EN"
 "http://www.w3.org/TR/2001/REC-SVG-20010904/DTD/svg10.dtd">
<svg version="1.0" xmlns="http://www.w3.org/2000/svg"
 width="440.000000pt" height="440.000000pt" viewBox="0 0 440.000000 440.000000"
 preserveAspectRatio="xMidYMid meet">
<metadata>
Created by potrace 1.11, written by Peter Selinger 2001-2013
</metadata>
<g transform="translate(0.000000,440.000000) scale(0.100000,-0.100000)"
fill="#000000" stroke="none">
<path d="M1975 4284 c-108 -28 -175 -77 -191 -141 -9 -34 12 -112 37 -139 24
-26 24 -36 -1 -59 -13 -12 -20 -31 -20 -57 0 -21 -5 -38 -11 -38 -5 0 -19 -20
-30 -45 -17 -39 -19 -51 -9 -80 6 -19 24 -45 40 -57 16 -13 31 -34 35 -48 5
-23 0 -30 -43 -58 -53 -34 -102 -96 -102 -129 0 -25 57 -42 165 -49 39 -3 80
-7 93 -10 30 -6 28 -37 -3 -58 -30 -20 -33 -56 -5 -81 24 -22 27 -77 4 -96 -9
-7 -28 -38 -43 -67 -25 -53 -28 -55 -96 -76 -204 -65 -488 -266 -549 -388 -32
-65 -32 -97 -1 -195 41 -130 153 -273 256 -329 52 -29 79 -73 79 -130 0 -26 8
-44 31 -67 l31 -31 -10 -71 c-6 -38 -24 -133 -41 -210 -80 -364 -124 -711
-125 -982 l-1 -181 -60 -17 c-117 -32 -220 -109 -213 -158 4 -32 79 -48 228
-48 149 -1 240 12 279 40 38 27 43 26 35 -5 l-7 -27 54 7 c84 11 118 25 134
56 20 39 19 73 -5 120 -17 33 -18 40 -5 47 11 7 16 54 25 228 14 296 55 664
103 925 12 65 12 65 48 68 l36 3 11 -98 c27 -226 42 -438 53 -778 6 -202 16
-363 21 -366 5 -3 1 -21 -11 -40 -38 -62 -23 -139 30 -158 44 -15 46 -15 54
17 l8 27 13 -32 c18 -43 34 -49 134 -57 165 -13 401 33 408 80 5 32 -69 117
-138 160 -48 30 -58 40 -49 51 28 33 -16 777 -72 1241 l-22 173 32 33 c20 21
31 41 29 54 -2 11 5 29 15 40 56 62 35 352 -40 547 -2 7 32 -5 76 -27 181 -90
370 -72 447 43 40 60 74 168 82 261 8 86 -2 204 -19 224 -6 8 -15 32 -19 53
-10 53 7 70 113 117 97 43 127 65 127 94 0 58 -86 77 -169 40 -24 -11 -45 -19
-47 -17 -2 1 33 32 76 67 82 67 95 87 80 125 -24 62 -101 43 -197 -48 -29 -27
-53 -46 -53 -40 0 5 16 35 35 67 39 65 44 105 17 129 -47 43 -109 3 -167 -106
-34 -63 -61 -94 -99 -114 -27 -14 -30 -13 -55 11 -36 35 -84 51 -110 37 -51
-28 -47 -71 13 -144 38 -48 61 -114 45 -133 -5 -6 -10 -29 -10 -50 0 -22 -1
-61 -2 -89 -1 -27 2 -70 6 -94 l8 -43 -28 6 c-15 4 -63 20 -105 37 -43 16 -90
29 -105 29 -21 0 -33 8 -46 31 -9 17 -15 34 -12 39 8 12 -15 112 -31 137 -8
12 -14 40 -14 63 0 39 1 40 37 40 51 0 107 59 123 132 19 80 24 316 11 421
-15 115 -55 259 -86 313 -45 78 -184 124 -385 129 -74 2 -144 2 -155 -1z m259
-185 c34 -10 72 -29 85 -43 30 -32 48 -107 57 -233 l7 -104 -39 7 c-51 9 -54
11 -54 37 0 35 -34 82 -73 100 -70 33 -167 12 -197 -42 -14 -26 -27 -27 -35
-1 -11 34 -70 62 -122 58 -58 -4 -67 15 -29 57 15 16 26 37 26 47 0 33 31 87
61 109 60 42 192 46 313 8z m-309 -243 c49 -21 81 -95 57 -133 -4 -6 -29 -14
-57 -18 -27 -4 -62 -16 -78 -26 l-28 -20 -29 30 c-50 50 -33 131 34 164 39 20
58 20 101 3z m303 -15 c35 -25 56 -78 47 -120 -17 -79 -133 -118 -205 -69 -22
15 -40 38 -49 64 -12 36 -12 44 4 77 35 74 135 97 203 48z m141 -140 c11 -7
12 -25 6 -86 -8 -84 -3 -95 44 -95 21 0 23 -3 17 -35 -12 -64 -26 -200 -26
-257 0 -57 0 -57 -42 -82 -74 -42 -150 -59 -253 -54 -116 5 -145 20 -145 78 0
37 2 40 28 41 25 1 25 1 -8 11 -66 19 -78 48 -34 89 15 14 23 31 21 41 -4 14
1 18 23 18 34 0 44 -13 36 -46 -4 -16 -13 -24 -28 -24 -35 0 -12 -13 39 -21
62 -10 168 7 210 33 39 23 63 65 63 107 0 43 -29 60 -83 51 -40 -8 -44 -6 -87
34 -59 55 -145 89 -192 76 -52 -15 -77 -12 -103 14 -25 26 -25 55 2 78 8 7 45
15 82 19 66 7 66 7 96 -26 66 -71 166 -69 227 5 34 40 74 52 107 31z m180 -42
c28 -31 35 -71 17 -112 -17 -41 -48 -61 -82 -53 -24 6 -34 39 -15 51 5 3 12
19 16 36 6 27 10 30 33 24 22 -5 24 -4 13 9 -8 9 -20 16 -27 16 -8 0 -14 10
-14 25 0 32 31 34 59 4z m589 -42 c20 -15 14 -36 -28 -109 -22 -39 -38 -74
-34 -79 10 -17 30 -9 65 27 41 42 116 94 137 94 23 0 52 -31 52 -55 0 -16 -23
-40 -80 -85 -50 -40 -80 -70 -80 -82 0 -21 18 -19 70 7 48 24 89 28 115 11 29
-19 32 -47 8 -68 -10 -8 -56 -32 -103 -53 -47 -22 -95 -52 -108 -67 -31 -37
-92 -68 -134 -68 -18 0 -53 9 -77 20 -24 11 -50 20 -59 20 -33 0 -81 50 -96
101 -9 28 -34 73 -56 102 -28 34 -40 59 -38 75 7 55 68 54 125 -3 31 -31 36
-33 51 -19 9 8 32 26 49 40 18 14 47 52 64 85 55 103 112 141 157 106z m-694
-477 c3 -16 8 -43 11 -58 5 -24 -1 -35 -45 -76 -60 -57 -179 -116 -232 -116
-34 0 -38 3 -38 25 0 13 -10 53 -23 88 l-24 64 80 7 c91 8 176 34 221 70 40
32 43 32 50 -4z m371 10 c22 -21 96 -53 167 -72 37 -10 69 -4 142 27 36 16 12
-29 -29 -52 -57 -32 -161 -32 -230 1 -58 27 -70 39 -80 84 -8 37 0 40 30 12z
m-778 -73 c2 -2 -12 -30 -32 -62 -19 -32 -37 -67 -41 -77 -8 -28 -26 -17 -52
30 -26 47 -24 77 8 129 l19 31 47 -24 c26 -13 49 -26 51 -27z m767 -6 c10 -11
41 -29 69 -41 67 -29 181 -25 241 9 45 26 50 22 66 -52 21 -99 0 -250 -49
-359 -53 -117 -116 -152 -264 -146 -89 3 -99 6 -189 50 -182 91 -297 254 -247
351 42 80 85 90 216 47 54 -18 104 -34 111 -36 8 -2 12 -23 12 -59 0 -39 3
-54 11 -49 11 6 10 54 -7 237 -7 71 0 81 30 48z m-700 -75 c8 -27 13 -52 10
-57 -7 -12 -81 -11 -105 1 -18 10 -18 12 -3 43 9 18 26 45 37 60 24 35 37 25
61 -47z m376 -8 c0 -6 -13 -26 -30 -44 -79 -90 -59 -189 65 -323 37 -39 60
-75 70 -108 38 -125 57 -227 62 -334 8 -162 -2 -178 -139 -228 -117 -43 -220
-55 -468 -55 -222 0 -239 1 -300 23 -87 32 -136 64 -156 103 -41 80 -22 248
46 398 21 47 43 103 50 125 35 112 136 339 183 408 l19 28 18 -28 c9 -15 26
-36 38 -46 20 -18 21 -18 37 10 l16 28 -6 -40 -6 -40 21 25 22 25 -6 -27 c-7
-32 9 -39 17 -8 8 29 27 24 28 -7 l2 -28 4 28 c5 33 16 35 31 5 10 -23 11 -23
11 5 1 31 21 38 21 7 0 -17 7 -20 49 -20 60 0 190 62 242 116 25 26 36 31 46
23 7 -6 13 -16 13 -21z m-634 -26 c-35 -56 -109 -207 -137 -279 -15 -39 -32
-65 -45 -72 -12 -5 -38 -24 -57 -41 -20 -17 -41 -29 -47 -25 -12 7 -12 3 -4
-19 3 -9 21 -25 39 -36 l33 -20 -34 -87 c-36 -91 -54 -176 -54 -256 l0 -48
-32 17 c-75 39 -176 156 -230 267 -25 51 -31 76 -32 138 -1 66 2 80 25 115 79
118 337 298 524 365 74 26 78 24 51 -19z m-187 -419 c-11 -26 -22 -49 -24 -51
-7 -7 -45 19 -45 32 0 12 67 66 82 66 4 0 -2 -21 -13 -47z m-40 -587 c21 -25
126 -65 201 -77 48 -7 147 -10 275 -6 210 5 332 23 445 66 58 22 71 20 54 -7
-16 -25 -85 -61 -161 -83 -81 -23 -288 -49 -393 -49 -144 0 -335 40 -403 85
-20 13 -47 60 -47 81 0 9 19 3 29 -10z m568 -838 c-2 -13 -4 -5 -4 17 -1 22 1
32 4 23 2 -10 2 -28 0 -40z m10 -240 c-3 -7 -5 -2 -5 12 0 14 2 19 5 13 2 -7
2 -19 0 -25z m-700 -40 c-3 -8 -6 -5 -6 6 -1 11 2 17 5 13 3 -3 4 -12 1 -19z
m-10 -140 c-3 -7 -5 -2 -5 12 0 14 2 19 5 13 2 -7 2 -19 0 -25z m720 -210 c-2
-35 -3 -9 -3 57 0 66 1 94 3 63 2 -32 2 -86 0 -120z"/>
<path d="M1845 3760 c-8 -14 3 -30 21 -30 8 0 14 9 14 20 0 21 -24 28 -35 10z"/>
<path d="M2175 3750 c-10 -16 16 -43 28 -31 11 11 2 41 -12 41 -5 0 -13 -5
-16 -10z"/>
<path d="M2945 3278 c-29 -15 -55 -50 -55 -73 0 -16 4 -14 19 11 11 18 30 39
42 48 27 18 22 29 -6 14z"/>
</g>
</svg>
