<?xml version="1.0" encoding="UTF-8" ?>
<!DOCTYPE svg PUBLIC "-//W3C//DTD SVG 1.1//EN" "http://www.w3.org/Graphics/SVG/1.1/DTD/svg11.dtd">
<svg width="240pt" height="240pt" viewBox="0 0 240 240" version="1.1" xmlns="http://www.w3.org/2000/svg">
<path fill="#f5f5f5" d=" M 0.00 0.00 L 240.00 0.00 L 240.00 240.00 L 0.00 240.00 L 0.00 0.00 Z" />
<path fill="#abafb3" d=" M 97.95 6.18 C 102.66 6.27 107.32 7.15 112.03 7.21 C 115.60 7.33 119.47 7.40 122.46 9.61 C 128.40 13.84 134.06 18.98 137.39 25.56 C 138.07 29.79 138.45 34.83 135.00 38.04 C 125.46 47.83 112.26 52.57 101.02 59.97 C 96.69 62.52 92.35 65.62 90.02 70.20 C 88.13 75.16 91.68 79.73 94.57 83.41 C 99.05 88.00 103.51 92.64 108.53 96.65 C 103.30 96.89 98.15 95.74 92.93 95.68 C 89.25 95.28 85.06 95.49 82.06 92.97 C 76.37 88.63 70.72 83.64 67.80 76.96 C 67.03 73.39 66.62 69.03 69.17 66.05 C 78.55 55.33 92.63 51.07 104.00 43.06 C 108.33 40.48 112.69 37.36 115.04 32.77 C 115.74 30.44 115.75 27.71 114.59 25.52 C 110.41 18.01 104.02 12.13 97.95 6.18 Z" />
<path fill="#7db779" d=" M 2.76 51.01 C 13.17 50.99 23.58 51.00 34.00 51.00 C 34.00 55.00 34.00 59.00 34.00 63.00 C 28.57 63.01 23.15 62.99 17.73 63.01 C 17.72 115.67 17.72 168.33 17.73 220.99 C 23.15 221.01 28.57 220.99 34.00 221.00 C 34.00 225.00 34.00 229.00 34.00 233.00 C 23.59 233.00 13.17 233.01 2.76 232.99 C 2.76 172.33 2.76 111.67 2.76 51.01 Z" />
<path fill="#7db779" d=" M 153.54 51.01 C 163.93 51.00 174.33 50.99 184.73 51.01 C 184.72 111.67 184.72 172.33 184.73 232.99 C 174.33 233.01 163.93 233.00 153.54 232.99 C 153.53 229.00 153.53 225.00 153.54 221.01 C 158.94 220.99 164.35 221.01 169.76 220.99 C 169.76 168.33 169.76 115.67 169.76 63.01 C 164.35 62.99 158.94 63.01 153.54 62.99 C 153.53 59.00 153.53 55.00 153.54 51.01 Z" />
<path fill="#7db779" d=" M 192.54 70.92 C 206.03 72.82 218.75 80.37 226.12 91.93 C 235.63 106.57 237.38 124.99 235.10 141.95 C 233.00 157.78 224.80 173.47 210.72 181.71 C 205.21 185.14 198.90 186.99 192.55 188.08 C 192.53 186.22 192.52 184.36 192.50 182.51 C 199.02 181.04 204.72 176.77 207.82 170.84 C 214.20 159.00 214.87 145.15 215.28 131.99 C 215.22 118.56 214.86 104.66 209.76 92.05 C 206.84 84.53 200.64 78.14 192.53 76.51 C 192.53 74.64 192.53 72.78 192.54 70.92 Z" />
<path fill="#555f67" d=" M 41.97 132.02 C 43.73 132.02 45.48 132.01 47.24 132.02 C 41.22 158.32 35.42 184.68 29.50 211.00 C 27.77 211.00 26.04 210.99 24.30 210.99 C 30.12 184.65 36.03 158.34 41.97 132.02 Z" />
<path fill="#555f67" d=" M 64.73 132.03 C 66.46 132.02 68.19 132.00 69.92 131.99 C 67.56 144.63 64.16 157.05 61.69 169.67 C 58.29 183.39 55.70 197.29 52.29 211.01 C 50.54 210.99 48.80 210.98 47.06 210.96 C 53.07 184.68 58.96 158.37 64.73 132.03 Z" />
<path fill="#555f67" d=" M 87.77 132.06 C 89.50 132.04 91.23 132.02 92.96 132.02 C 87.25 158.38 81.23 184.68 75.34 211.01 C 73.58 210.99 71.81 210.96 70.04 210.92 C 76.12 184.67 81.89 158.35 87.77 132.06 Z" />
<path fill="#555f67" d=" M 99.89 180.03 C 103.64 164.04 106.91 147.95 110.80 132.00 C 112.57 132.00 114.33 132.01 116.10 132.01 C 112.70 144.35 110.68 157.03 107.47 169.42 C 104.72 183.33 101.04 197.03 98.36 210.96 C 96.61 210.97 94.86 210.99 93.11 211.00 C 94.93 200.58 97.93 190.42 99.89 180.03 Z" />
<path fill="#555f67" d=" M 116.08 211.01 C 121.80 184.64 127.79 158.33 133.72 132.00 C 135.44 132.00 137.17 131.99 138.89 132.00 C 133.09 158.32 127.04 184.59 121.31 210.93 C 119.57 210.96 117.82 210.99 116.08 211.01 Z" />
<path fill="#555f67" d=" M 156.52 131.99 C 158.26 131.99 159.99 132.01 161.73 132.02 C 155.95 158.37 149.95 184.67 144.11 211.01 C 142.34 210.99 140.57 210.97 138.80 210.95 C 144.84 184.66 150.64 158.31 156.52 131.99 Z" />
<path fill="#7db779" d=" M 44.00 222.00 C 77.33 222.00 110.67 222.00 144.00 222.00 C 144.00 225.67 144.00 229.33 144.00 233.00 C 110.67 233.00 77.33 233.00 44.00 233.00 C 44.00 229.33 44.00 225.67 44.00 222.00 Z" />
</svg>
